<svg width="23" height="9" viewBox="0 0 23 9" fill="none" xmlns="http://www.w3.org/2000/svg">
<path d="M22.916 7.85606C22.7577 8.10806 22.4227 8.18377 22.1709 8.02424L11.5001 1.26948L0.82934 8.0237C0.576456 8.18431 0.243065 8.10806 0.083662 7.85552C-0.0757408 7.60298 -0.000635147 7.26933 0.251707 7.1098L11.1819 0.191729C11.2716 0.134948 11.3715 0.10791 11.4704 0.10791C11.4807 0.10791 11.4904 0.111155 11.5007 0.111696C11.5109 0.111155 11.5207 0.10791 11.5309 0.10791C11.6298 0.10791 11.7298 0.134948 11.8195 0.191729L22.7491 7.11034C23.0003 7.26987 23.076 7.60352 22.916 7.85606Z" fill="white" fill-opacity="0.5"/>
</svg>
