<svg width="23" height="8" viewBox="0 0 23 8" fill="none" xmlns="http://www.w3.org/2000/svg">
<path d="M0.0839515 0.251847C0.242273 -0.000151634 0.57729 -0.07586 0.829092 0.0836673L11.4999 6.83843L22.1707 0.0842075C22.4235 -0.0764008 22.7569 -0.000151634 22.9163 0.252388C23.0757 0.504927 23.0006 0.838583 22.7483 0.99811L11.8181 7.91618C11.7284 7.97296 11.6285 8 11.5296 8C11.5193 8 11.5096 7.99676 11.4993 7.99621C11.4891 7.99676 11.4793 8 11.4691 8C11.3702 8 11.2702 7.97296 11.1805 7.91618L0.250919 0.99757C-0.000342749 0.838043 -0.0759914 0.504387 0.0839515 0.251847Z" fill="white" fill-opacity="0.5"/>
</svg>
