<svg width="20" height="20" viewBox="0 0 20 20" fill="none" xmlns="http://www.w3.org/2000/svg">
<path d="M3.84089 11.9835H3.77793C3.35819 11.9835 3.0224 12.3192 3.0224 12.739V12.8229C3.0224 13.2427 3.35819 13.5785 3.77793 13.5785H3.84089C4.26062 13.5785 4.59641 13.2427 4.59641 12.8229V12.739C4.59641 12.3192 4.26062 11.9835 3.84089 11.9835Z" fill="white" fill-opacity="0.47"/>
<path d="M6.90436 11.9835H6.8414C6.42167 11.9835 6.08588 12.3192 6.08588 12.739V12.8229C6.08588 13.2427 6.42167 13.5785 6.8414 13.5785H6.90436C7.3241 13.5785 7.65989 13.2427 7.65989 12.8229V12.739C7.65989 12.3192 7.3241 11.9835 6.90436 11.9835Z" fill="white" fill-opacity="0.47"/>
<path d="M9.98956 11.9835H9.90561C9.48587 11.9835 9.15009 12.3192 9.15009 12.739V12.8229C9.15009 13.2427 9.48587 13.5785 9.90561 13.5785H9.98956C10.4093 13.5785 10.7451 13.2427 10.7451 12.8229V12.739C10.7451 12.3192 10.4093 11.9835 9.98956 11.9835Z" fill="white" fill-opacity="0.47"/>
<path d="M3.84089 8.87744H3.77793C3.35819 8.87744 3.0224 9.21323 3.0224 9.63297V9.71692C3.0224 10.1367 3.35819 10.4724 3.77793 10.4724H3.84089C4.26062 10.4724 4.59641 10.1367 4.59641 9.71692V9.63297C4.59641 9.21323 4.26062 8.87744 3.84089 8.87744Z" fill="white" fill-opacity="0.47"/>
<path d="M6.90436 8.87744H6.8414C6.42167 8.87744 6.08588 9.21323 6.08588 9.63297V9.71692C6.08588 10.1367 6.42167 10.4724 6.8414 10.4724H6.90436C7.3241 10.4724 7.65989 10.1367 7.65989 9.71692V9.63297C7.65989 9.21323 7.3241 8.87744 6.90436 8.87744Z" fill="white" fill-opacity="0.47"/>
<path d="M9.98956 8.87744H9.90561C9.48587 8.87744 9.15009 9.21323 9.15009 9.63297V9.71692C9.15009 10.1367 9.48587 10.4724 9.90561 10.4724H9.98956C10.4093 10.4724 10.7451 10.1367 10.7451 9.71692V9.63297C10.7451 9.21323 10.4093 8.87744 9.98956 8.87744Z" fill="white" fill-opacity="0.47"/>
<path d="M13.0538 11.9835H12.9698C12.5501 11.9835 12.2143 12.3192 12.2143 12.739V12.8229C12.2143 13.2427 12.5501 13.5785 12.9698 13.5785H13.0538C13.4735 13.5785 13.8093 13.2427 13.8093 12.8229V12.739C13.8303 12.3192 13.4735 11.9835 13.0538 11.9835Z" fill="white" fill-opacity="0.47"/>
<path d="M16.1392 11.9835H16.0553C15.6355 11.9835 15.2997 12.3192 15.2997 12.739V12.8229C15.2997 13.2427 15.6355 13.5785 16.0553 13.5785H16.1392C16.559 13.5785 16.8947 13.2427 16.8947 12.8229V12.739C16.8947 12.3192 16.559 11.9835 16.1392 11.9835Z" fill="white" fill-opacity="0.47"/>
<path d="M13.0538 8.87744H12.9698C12.5501 8.87744 12.2143 9.21323 12.2143 9.63297V9.71692C12.2143 10.1367 12.5501 10.4724 12.9698 10.4724H13.0538C13.4735 10.4724 13.8093 10.1367 13.8093 9.71692V9.63297C13.8303 9.21323 13.4735 8.87744 13.0538 8.87744Z" fill="white" fill-opacity="0.47"/>
<path d="M16.1392 8.87744H16.0553C15.6355 8.87744 15.2997 9.21323 15.2997 9.63297V9.71692C15.2997 10.1367 15.6355 10.4724 16.0553 10.4724H16.1392C16.559 10.4724 16.8947 10.1367 16.8947 9.71692V9.63297C16.8947 9.21323 16.559 8.87744 16.1392 8.87744Z" fill="white" fill-opacity="0.47"/>
<path d="M3.84089 15.0685H3.77793C3.35819 15.0685 3.0224 15.4043 3.0224 15.8241V15.908C3.0224 16.3278 3.35819 16.6635 3.77793 16.6635H3.84089C4.26062 16.6635 4.59641 16.3278 4.59641 15.908V15.8241C4.59641 15.4253 4.26062 15.0685 3.84089 15.0685Z" fill="white" fill-opacity="0.47"/>
<path d="M6.90436 15.0685H6.8414C6.42167 15.0685 6.08588 15.4043 6.08588 15.8241V15.908C6.08588 16.3278 6.42167 16.6635 6.8414 16.6635H6.90436C7.3241 16.6635 7.65989 16.3278 7.65989 15.908V15.8241C7.65989 15.4253 7.3241 15.0685 6.90436 15.0685Z" fill="white" fill-opacity="0.47"/>
<path d="M9.98956 15.0685H9.90561C9.48587 15.0685 9.15009 15.4043 9.15009 15.8241V15.908C9.15009 16.3278 9.48587 16.6635 9.90561 16.6635H9.98956C10.4093 16.6635 10.7451 16.3278 10.7451 15.908V15.8241C10.7451 15.4253 10.4093 15.0685 9.98956 15.0685Z" fill="white" fill-opacity="0.47"/>
<path d="M13.0538 15.0685H12.9698C12.5501 15.0685 12.2143 15.4043 12.2143 15.8241V15.908C12.2143 16.3278 12.5501 16.6635 12.9698 16.6635H13.0538C13.4735 16.6635 13.8093 16.3278 13.8093 15.908V15.8241C13.8303 15.4253 13.4735 15.0685 13.0538 15.0685Z" fill="white" fill-opacity="0.47"/>
<path d="M16.1392 15.0685H16.0553C15.6355 15.0685 15.2997 15.4043 15.2997 15.8241V15.908C15.2997 16.3278 15.6355 16.6635 16.0553 16.6635H16.1392C16.559 16.6635 16.8947 16.3278 16.8947 15.908V15.8241C16.8947 15.4253 16.559 15.0685 16.1392 15.0685Z" fill="white" fill-opacity="0.47"/>
<path d="M19.9165 6.42197V4.72204C19.9165 3.42086 18.8672 2.37151 17.587 2.37151H16.3487V1.63697C16.3487 0.734539 15.6142 0 14.7118 0C13.8093 0 13.0748 0.734539 13.0748 1.63697V2.37151H6.8627V1.63697C6.8627 0.734539 6.12816 0 5.22572 0C4.32329 0 3.58875 0.734539 3.58875 1.63697V2.37151H2.35053C1.04934 2.37151 0 3.42086 0 4.72204V17.2722C0 18.5524 1.04934 19.6017 2.35053 19.6017H17.608C18.8882 19.6017 19.9375 18.5524 19.9375 17.2722L19.9165 6.42197ZM14.0402 1.63697C14.0402 1.2802 14.334 0.986382 14.6908 0.986382C15.0476 0.986382 15.3414 1.2802 15.3414 1.63697V3.19C15.3414 3.54678 15.0476 3.84059 14.6908 3.84059C14.334 3.84059 14.0402 3.54678 14.0402 3.19V1.63697ZM4.55414 1.63697C4.55414 1.2802 4.84796 0.986382 5.20474 0.986382C5.56151 0.986382 5.85533 1.2802 5.85533 1.63697V3.19C5.85533 3.54678 5.56151 3.84059 5.20474 3.84059C4.84796 3.84059 4.55414 3.54678 4.55414 3.19V1.63697ZM2.32954 3.35789H3.58875C3.6727 4.17638 4.36526 4.82697 5.22572 4.82697C6.0652 4.82697 6.75776 4.17638 6.84171 3.35789H13.0748C13.1588 4.17638 13.8513 4.82697 14.6908 4.82697C15.5303 4.82697 16.2228 4.17638 16.3068 3.35789H17.566C18.3005 3.35789 18.9091 3.96651 18.9091 4.72204V5.93928H0.965395V4.72204C0.965395 3.96651 1.57401 3.35789 2.32954 3.35789ZM17.587 18.6153H2.32954C1.57401 18.6153 0.965395 18.0067 0.965395 17.2722V6.90467H18.9301V17.2722C18.9301 18.0067 18.3215 18.6153 17.587 18.6153Z" fill="white" fill-opacity="0.47"/>
</svg>
