<svg width="25" height="16" viewBox="0 0 25 16" fill="none" xmlns="http://www.w3.org/2000/svg">
<path d="M21.4463 6.09712C21.3321 5.19309 20.8811 4.36065 20.178 3.75643C19.4749 3.15221 18.5682 2.81787 17.6285 2.81632C17.3331 2.81676 17.0388 2.84973 16.7511 2.91459C16.194 1.92698 15.343 1.12493 14.3088 0.612977C13.2746 0.101025 12.1053 -0.0970785 10.9532 0.0444873C9.80116 0.186053 8.71984 0.660723 7.85018 1.40662C6.98052 2.15252 6.36287 3.13506 6.07773 4.22615H5.92174C4.33754 4.26507 2.83172 4.90237 1.72544 6.00214C0.619167 7.10191 0 8.5771 0 10.1131C0 11.6491 0.619167 13.1242 1.72544 14.224C2.83172 15.3238 4.33754 15.9611 5.92174 16H19.5003C20.7333 16.0009 21.928 15.5847 22.8784 14.8233C23.8287 14.0619 24.4751 13.0029 24.7062 11.829C24.9372 10.6551 24.7384 9.43979 24.144 8.39273C23.5496 7.34568 22.5969 6.53247 21.4502 6.09334L21.4463 6.09712ZM19.4964 14.4919H5.91005C5.01691 14.4926 4.14359 14.2367 3.40055 13.7563C2.6575 13.276 2.07809 12.5929 1.73559 11.7934C1.39309 10.9939 1.30287 10.114 1.47636 9.26478C1.64985 8.4156 2.07924 7.63534 2.71024 7.02269C3.34124 6.41004 4.14551 5.99251 5.02134 5.82289C5.89716 5.65327 6.80522 5.73919 7.63066 6.06977C8.45611 6.40036 9.16188 6.96077 9.65873 7.68014C10.1556 8.3995 10.4212 9.24551 10.4219 10.1112C10.4219 10.3117 10.5041 10.504 10.6504 10.6457C10.7966 10.7875 10.995 10.8671 11.2019 10.8671C11.4087 10.8671 11.6071 10.7875 11.7534 10.6457C11.8996 10.504 11.9818 10.3117 11.9818 10.1112C11.9819 8.84152 11.5592 7.60573 10.7764 6.58763C9.99373 5.56952 8.89287 4.82349 7.63759 4.4605C7.8785 3.63427 8.38181 2.90259 9.07609 2.36934C9.77036 1.8361 10.6203 1.52838 11.5052 1.48989C12.3902 1.4514 13.2651 1.68408 14.0059 2.15491C14.7467 2.62573 15.3156 3.31077 15.6319 4.11276C15.6701 4.20961 15.7284 4.29781 15.8033 4.37187C15.8782 4.44593 15.9679 4.50427 16.0671 4.54326C16.1662 4.58226 16.2725 4.60107 16.3794 4.59854C16.4864 4.59601 16.5917 4.57218 16.6887 4.52853C16.9884 4.39071 17.3162 4.31968 17.648 4.32065C17.9489 4.32114 18.2468 4.37915 18.5246 4.49134C18.8024 4.60354 19.0546 4.76772 19.2669 4.9745C19.4791 5.18127 19.6472 5.42659 19.7616 5.6964C19.8759 5.96621 19.9342 6.25522 19.9332 6.54691V6.61872C19.9269 6.78889 19.9802 6.95611 20.0842 7.09331C20.1882 7.23051 20.337 7.32965 20.5064 7.37467C21.3786 7.6061 22.1346 8.1363 22.6342 8.86692C23.1337 9.59754 23.3428 10.479 23.2228 11.3477C23.1028 12.2164 22.6618 13.0135 21.9815 13.591C21.3013 14.1685 20.428 14.4872 19.5237 14.4881L19.4964 14.4919Z" fill="white"/>
</svg>
