<svg width="13" height="20" viewBox="0 0 13 20" fill="none" xmlns="http://www.w3.org/2000/svg">
<path d="M6.72609 0.35926C6.58724 0.196699 6.40349 0.0819369 6.19955 0.0304141C5.99562 -0.0211086 5.7813 -0.00691952 5.58541 0.0710722C5.38953 0.149064 5.22148 0.287116 5.10389 0.466654C4.9863 0.646192 4.9248 0.858601 4.92767 1.0753C4.9996 4.58125 3.56601 6.5013 2.18379 8.3524C1.06364 9.85874 0 11.2802 0 13.2904C0 15.0699 0.684819 16.7765 1.90381 18.0348C3.12279 19.2931 4.77609 20 6.5 20C8.22391 20 9.87721 19.2931 11.0962 18.0348C12.3152 16.7765 13 15.0699 13 13.2904C13 8.40544 9.64466 3.80156 6.72609 0.35926ZM6.76719 3.70609C8.47826 5.93377 10.0763 8.4797 10.6826 11.1317C10.3108 11.6065 9.79179 11.9343 9.21304 12.0599C8.88688 12.0659 8.56339 11.9982 8.26518 11.8617C7.96697 11.7252 7.70124 11.5231 7.48656 11.2696C7.0388 10.7886 6.49836 10.4098 5.90008 10.1577C5.30181 9.90556 4.65897 9.78565 4.01304 9.8057C3.89486 9.8057 3.78182 9.8057 3.67391 9.84283L3.81265 9.65188C4.92767 8.15615 6.24822 6.37931 6.76719 3.70609ZM6.5 17.8784C5.32162 17.877 4.19189 17.3932 3.35865 16.5331C2.52541 15.673 2.0567 14.5068 2.05534 13.2904C2.05534 13.2321 2.05534 13.179 2.05534 13.1207C2.1581 13.0613 2.25022 12.9842 2.32767 12.8926C2.79856 12.3551 3.44003 12.009 4.13636 11.9167C4.50002 11.9211 4.85888 12.003 5.19045 12.1572C5.52202 12.3115 5.81916 12.5348 6.06324 12.8131C6.85142 13.6609 7.93125 14.1544 9.06917 14.1868C9.21123 14.1946 9.35359 14.1946 9.49565 14.1868C10.0105 14.115 10.5055 13.9344 10.9498 13.6564C10.8604 14.8096 10.3523 15.8854 9.52711 16.6683C8.70197 17.4512 7.62075 17.8834 6.5 17.8784Z" fill="white" fill-opacity="0.5"/>
</svg>
