<svg width="20" height="14" viewBox="0 0 20 14" fill="none" xmlns="http://www.w3.org/2000/svg">
<path d="M9.85644 0H9.77129C7.17413 0 4.70469 1.04312 2.85262 2.93777C1.02183 4.83242 0 7.30185 0 9.89902V9.94159C0 11.4105 1.19214 12.6026 2.66103 12.6026H7.32314C7.96179 13.2838 8.83461 13.667 9.77129 13.667C10.2609 13.667 10.7293 13.5606 11.155 13.369C11.4531 13.2413 11.7937 13.0071 12.2833 12.6026H16.839C18.2866 12.6026 19.4574 11.4531 19.5 10.0055C19.5 9.94159 19.5 9.85644 19.5 9.77129C19.5 7.17413 18.4995 4.74727 16.6687 2.8952C14.8592 1.06441 12.4323 0.0212882 9.85644 0ZM18.542 9.96288C18.5207 10.8783 17.7757 11.6021 16.8603 11.6021H11.964C11.2828 12.1769 10.9847 12.3684 10.7931 12.4536C10.4738 12.6026 10.1545 12.6665 9.81386 12.6665C9.00491 12.6665 8.25982 12.262 7.81277 11.6021H2.66103C1.72434 11.6021 0.979258 10.857 0.979258 9.92031V9.87773C0.979258 7.53603 1.89465 5.30076 3.55513 3.59771C5.21561 1.89465 7.42958 0.957969 9.77129 0.957969H9.83515C12.1556 0.979258 14.3483 1.89465 15.9874 3.55513C17.6266 5.21561 18.542 7.4083 18.542 9.75C18.542 9.83515 18.542 9.89902 18.542 9.96288Z" fill="white" fill-opacity="0.5"/>
<path d="M9.19672 8.9624C8.47293 9.28173 8.1536 10.1333 8.47293 10.8571C8.7071 11.3893 9.2393 11.7086 9.77151 11.7086C9.9631 11.7086 10.176 11.666 10.3676 11.5809C11.0914 11.2402 14.0291 8.36633 14.0291 8.36633C14.0291 8.36633 9.92052 8.64308 9.19672 8.9624Z" fill="white" fill-opacity="0.5"/>
<path d="M9.77198 3.95959C10.0487 3.95959 10.2616 3.74671 10.2616 3.46996V2.55457C10.2616 2.27782 10.0487 2.06494 9.77198 2.06494C9.49523 2.06494 9.28235 2.27782 9.28235 2.55457V3.46996C9.30364 3.74671 9.51652 3.95959 9.77198 3.95959Z" fill="white" fill-opacity="0.5"/>
<path d="M3.7672 9.28168H2.85181C2.57506 9.28168 2.36218 9.49456 2.36218 9.77131C2.36218 10.0481 2.57506 10.2609 2.85181 10.2609H3.7672C4.04395 10.2609 4.25683 10.0481 4.25683 9.77131C4.25683 9.49456 4.04395 9.28168 3.7672 9.28168Z" fill="white" fill-opacity="0.5"/>
<path d="M6.5137 3.34218C6.36468 3.1293 6.06665 3.06544 5.83248 3.21445C5.6196 3.36347 5.55573 3.66151 5.70475 3.89568L6.25824 4.72592C6.3434 4.85365 6.5137 4.9388 6.66272 4.9388C6.74787 4.9388 6.85431 4.91751 6.93947 4.85365C7.15235 4.70463 7.21621 4.40659 7.06719 4.17242L6.5137 3.34218Z" fill="white" fill-opacity="0.5"/>
<path d="M12.623 4.85365C12.7081 4.91751 12.7933 4.9388 12.8997 4.9388C13.0487 4.9388 13.1978 4.87493 13.3042 4.72592L13.8577 3.89568C14.0067 3.68279 13.9429 3.36347 13.73 3.21445C13.5171 3.06544 13.1978 3.1293 13.0487 3.34218L12.4953 4.17242C12.3462 4.3853 12.3888 4.70463 12.623 4.85365Z" fill="white" fill-opacity="0.5"/>
<path d="M4.55528 6.21617L3.76762 5.76912C3.53345 5.64139 3.23541 5.72654 3.10768 5.93943C2.97995 6.1736 3.06511 6.47163 3.27799 6.59936L4.06565 7.04641C4.1508 7.08899 4.21467 7.11028 4.29982 7.11028C4.47013 7.11028 4.64043 7.02512 4.72559 6.85482C4.8746 6.66322 4.78945 6.36519 4.55528 6.21617Z" fill="white" fill-opacity="0.5"/>
<path d="M15.2849 4.83244C15.0933 4.66214 14.8166 4.66214 14.6462 4.83244L11.4743 7.59991C11.5807 7.59991 11.6872 7.57862 11.7936 7.57862C12.9006 7.47218 13.9224 7.40831 13.965 7.40831C13.9863 7.40831 14.0076 7.40831 14.0289 7.40831C14.4121 7.40831 14.7527 7.6212 14.923 7.9831C15.0933 8.345 15.0081 8.79205 14.7101 9.06879C14.6888 9.09008 14.1566 9.62229 13.4754 10.2609H16.7112C16.988 10.2609 17.2008 10.0481 17.2008 9.77131C17.2008 9.75002 17.2008 9.75002 17.2008 9.72873C17.1583 6.5355 15.37 4.89631 15.2849 4.83244Z" fill="white" fill-opacity="0.5"/>
</svg>
