<svg width="20" height="20" viewBox="0 0 20 20" fill="none" xmlns="http://www.w3.org/2000/svg">
<path d="M10.0035 16.9469C9.83542 16.9469 9.67425 17.0127 9.55542 17.1299C9.43658 17.2471 9.36982 17.4061 9.36982 17.5719V19.375C9.36982 19.5408 9.43658 19.6997 9.55542 19.8169C9.67425 19.9342 9.83542 20 10.0035 20C10.1715 20 10.3327 19.9342 10.4515 19.8169C10.5704 19.6997 10.6371 19.5408 10.6371 19.375V17.5719C10.6371 17.4061 10.5704 17.2471 10.4515 17.1299C10.3327 17.0127 10.1715 16.9469 10.0035 16.9469ZM10.0035 0C9.83542 0 9.67425 0.0658481 9.55542 0.183058C9.43658 0.300269 9.36982 0.45924 9.36982 0.625V2.42813C9.36982 2.59389 9.43658 2.75286 9.55542 2.87007C9.67425 2.98728 9.83542 3.05313 10.0035 3.05313C10.1715 3.05313 10.3327 2.98728 10.4515 2.87007C10.5704 2.75286 10.6371 2.59389 10.6371 2.42813V0.625C10.6371 0.45924 10.5704 0.300269 10.4515 0.183058C10.3327 0.0658481 10.1715 0 10.0035 0ZM13.8498 18.5969L13.2162 16.9C13.1586 16.7442 13.0406 16.6173 12.8882 16.5473C12.7358 16.4772 12.5615 16.4698 12.4035 16.5266C12.2455 16.5833 12.1169 16.6997 12.0459 16.85C11.9749 17.0003 11.9673 17.1723 12.0249 17.3281L12.6585 19.025C12.7033 19.1452 12.7845 19.2489 12.891 19.3222C12.9976 19.3954 13.1243 19.4346 13.2542 19.4344C13.3287 19.4341 13.4026 19.4214 13.4728 19.3969C13.6301 19.3398 13.7582 19.2236 13.8288 19.0737C13.8995 18.9237 13.907 18.7523 13.8498 18.5969ZM7.97259 2.65938L7.33893 0.9625C7.28137 0.806685 7.16341 0.679805 7.01101 0.609772C6.8586 0.539739 6.68423 0.53229 6.52626 0.589063C6.36829 0.645835 6.23965 0.76218 6.16864 0.912502C6.09764 1.06282 6.09009 1.23481 6.14765 1.39063L6.78131 3.0875C6.82611 3.20771 6.90726 3.31144 7.0138 3.38466C7.12033 3.45788 7.2471 3.49705 7.37695 3.49688C7.45157 3.49814 7.52576 3.48542 7.59556 3.45937C7.74992 3.40228 7.87564 3.28809 7.94603 3.14106C8.01643 2.99403 8.02596 2.82572 7.97259 2.67187V2.65938ZM16.5999 16.7812L15.4245 15.3969C15.3715 15.3334 15.3063 15.2808 15.2327 15.2422C15.1591 15.2035 15.0785 15.1796 14.9955 15.1718C14.9125 15.1639 14.8287 15.1723 14.749 15.1965C14.6693 15.2206 14.5952 15.2601 14.531 15.3125C14.4652 15.3644 14.4106 15.4286 14.3703 15.5016C14.33 15.5745 14.3048 15.6546 14.2962 15.7372C14.2877 15.8199 14.2959 15.9033 14.3204 15.9828C14.345 16.0623 14.3853 16.1361 14.4391 16.2L15.6146 17.5844C15.6741 17.6539 15.7483 17.7099 15.8321 17.7482C15.9158 17.7865 16.007 17.8063 16.0993 17.8063C16.2198 17.8064 16.3379 17.7727 16.4397 17.7091C16.5415 17.6454 16.6227 17.5545 16.6739 17.4469C16.7252 17.3393 16.7442 17.2195 16.7288 17.1016C16.7135 16.9837 16.6644 16.8726 16.5872 16.7812H16.5999ZM5.56784 3.8L4.3924 2.41562C4.28442 2.2884 4.12963 2.2087 3.96207 2.19405C3.79452 2.1794 3.62792 2.231 3.49894 2.3375C3.36995 2.444 3.28914 2.59668 3.27429 2.76194C3.25944 2.92721 3.31175 3.09153 3.41973 3.21875L4.59517 4.60312C4.65505 4.67311 4.7298 4.72925 4.81411 4.76759C4.89842 4.80593 4.99025 4.82553 5.08309 4.825C5.22602 4.82418 5.36448 4.77573 5.47596 4.6875C5.54175 4.63564 5.59639 4.57137 5.6367 4.49844C5.67701 4.42552 5.70217 4.3454 5.71073 4.26277C5.71928 4.18014 5.71105 4.09665 5.68652 4.0172C5.66199 3.93774 5.62164 3.8639 5.56784 3.8ZM18.5579 14.1469L16.9738 13.2438C16.828 13.1609 16.6548 13.1385 16.4923 13.1816C16.3298 13.2247 16.1913 13.3296 16.1072 13.4734C16.0232 13.6172 16.0005 13.7881 16.0442 13.9484C16.0879 14.1086 16.1943 14.2452 16.3401 14.3281L17.9243 15.2281C18.0205 15.2832 18.1298 15.3123 18.2411 15.3125C18.3804 15.3123 18.5157 15.2668 18.6261 15.183C18.7366 15.0993 18.816 14.982 18.852 14.8493C18.8881 14.7167 18.8788 14.5759 18.8257 14.449C18.7725 14.322 18.6784 14.2158 18.5579 14.1469ZM3.66686 5.67188L2.0827 4.77188C2.01058 4.72665 1.92993 4.69629 1.8456 4.68261C1.76127 4.66893 1.67501 4.67221 1.592 4.69227C1.50899 4.71232 1.43096 4.74873 1.36258 4.7993C1.29421 4.84987 1.23692 4.91357 1.19415 4.98654C1.15138 5.05952 1.12402 5.14028 1.11372 5.22396C1.10341 5.30764 1.11037 5.3925 1.13419 5.47346C1.158 5.55442 1.19816 5.62978 1.25227 5.69503C1.30638 5.76028 1.37331 5.81405 1.44904 5.85312L3.03319 6.75625C3.17898 6.83913 3.35218 6.86149 3.51469 6.81842C3.6772 6.77534 3.8157 6.67036 3.89973 6.52656C3.98376 6.38276 4.00643 6.21193 3.96276 6.05165C3.91909 5.89136 3.81265 5.75476 3.66686 5.67188ZM19.4736 11.0125L17.674 10.7C17.5084 10.671 17.338 10.708 17.2001 10.803C17.0623 10.8979 16.9683 11.043 16.9389 11.2063C16.9095 11.3695 16.9471 11.5376 17.0433 11.6736C17.1396 11.8096 17.2866 11.9022 17.4522 11.9312L19.255 12.2437C19.4201 12.2716 19.5898 12.2337 19.7267 12.1384C19.8637 12.0432 19.9568 11.8983 19.9857 11.7355C20.0146 11.5727 19.977 11.4052 19.881 11.2697C19.785 11.1342 19.6385 11.0417 19.4736 11.0125ZM2.55478 8.06875L0.752008 7.75625C0.586815 7.72844 0.417179 7.76631 0.280225 7.86157C0.14327 7.95683 0.050149 8.10172 0.0212408 8.26453C-0.00766746 8.42734 0.0299913 8.59482 0.125975 8.73032C0.221959 8.86581 0.368452 8.95828 0.533395 8.9875L2.333 9.3H2.44389C2.61195 9.3145 2.77896 9.26257 2.90819 9.15561C3.03743 9.04866 3.11829 8.89545 3.133 8.72969C3.1477 8.56393 3.09504 8.39919 2.98661 8.27173C2.87817 8.14426 2.72284 8.0645 2.55478 8.05V8.06875ZM19.9805 8.2625C19.9511 8.09983 19.8576 7.95526 19.7205 7.86039C19.5833 7.76552 19.4137 7.72808 19.2486 7.75625L17.4458 8.06875C17.3626 8.07593 17.2817 8.09921 17.2076 8.13725C17.1335 8.1753 17.0677 8.22736 17.014 8.29048C16.9056 8.41794 16.8529 8.58268 16.8676 8.74844C16.8823 8.9142 16.9632 9.06741 17.0924 9.17436C17.2217 9.28132 17.3887 9.33325 17.5567 9.31875H17.6676L19.4672 9.00625C19.5517 8.99281 19.6326 8.96263 19.7049 8.91753C19.7772 8.87244 19.8396 8.81336 19.8881 8.74385C19.9367 8.67435 19.9705 8.59587 19.9874 8.51314C20.0044 8.43041 20.0042 8.34515 19.9868 8.2625H19.9805ZM3.06171 11.2063C3.04718 11.1254 3.01664 11.0481 2.97183 10.9789C2.92701 10.9097 2.86881 10.8499 2.80055 10.8029C2.73229 10.7559 2.6553 10.7226 2.57398 10.7049C2.49267 10.6873 2.40863 10.6856 2.32666 10.7L0.527058 11.0125C0.444803 11.0263 0.36613 11.0561 0.295557 11.1C0.224983 11.1439 0.163899 11.2011 0.115809 11.2684C0.0677203 11.3357 0.0335738 11.4116 0.01533 11.4919C-0.00291366 11.5723 -0.00489525 11.6553 0.00949908 11.7364C0.0238934 11.8175 0.0543801 11.8949 0.0992092 11.9644C0.144038 12.0338 0.202326 12.0938 0.270728 12.1409C0.33913 12.1881 0.416298 12.2214 0.497802 12.2391C0.579306 12.2567 0.663542 12.2583 0.745672 12.2437L2.54844 11.9312C2.63099 11.9176 2.70999 11.888 2.78088 11.8442C2.85177 11.8003 2.91314 11.743 2.96145 11.6756C3.00976 11.6082 3.04405 11.532 3.06235 11.4514C3.08064 11.3709 3.08258 11.2875 3.06805 11.2063H3.06171ZM18.7829 5C18.6988 4.85841 18.5616 4.75513 18.401 4.71245C18.2403 4.66977 18.0691 4.69111 17.9243 4.77188L16.3401 5.67188C16.2678 5.71297 16.2044 5.76775 16.1536 5.83309C16.1027 5.89842 16.0655 5.97302 16.044 6.05258C16.0225 6.13215 16.0172 6.21512 16.0283 6.29673C16.0394 6.37834 16.0668 6.45698 16.1088 6.52812C16.193 6.67139 16.3313 6.77588 16.4935 6.81865C16.6556 6.86142 16.8284 6.83898 16.9738 6.75625L18.5579 5.85312C18.7021 5.7691 18.8067 5.6322 18.8489 5.47234C18.891 5.31248 18.8673 5.14266 18.7829 5ZM3.89181 13.4719C3.80771 13.3303 3.67053 13.227 3.50988 13.1843C3.34924 13.1416 3.17802 13.163 3.03319 13.2438L1.44904 14.1469C1.37331 14.1859 1.30638 14.2397 1.25227 14.305C1.19816 14.3702 1.158 14.4456 1.13419 14.5265C1.11037 14.6075 1.10341 14.6924 1.11372 14.776C1.12402 14.8597 1.15138 14.9405 1.19415 15.0135C1.23692 15.0864 1.29421 15.1501 1.36258 15.2007C1.43096 15.2513 1.50899 15.2877 1.592 15.3077C1.67501 15.3278 1.76127 15.3311 1.8456 15.3174C1.92993 15.3037 2.01058 15.2733 2.0827 15.2281L3.66686 14.3281C3.73973 14.2876 3.80374 14.2332 3.85518 14.1681C3.90662 14.103 3.94448 14.0285 3.96658 13.9488C3.98867 13.8692 3.99456 13.7861 3.9839 13.7042C3.97324 13.6224 3.94625 13.5434 3.90448 13.4719H3.89181ZM16.5207 2.34062C16.4571 2.28764 16.3835 2.24754 16.3041 2.22263C16.2247 2.19772 16.1412 2.18849 16.0582 2.19545C15.9752 2.20242 15.8945 2.22545 15.8205 2.26323C15.7466 2.30101 15.6809 2.35279 15.6272 2.41562L14.4391 3.8C14.3853 3.8639 14.345 3.93774 14.3204 4.0172C14.2959 4.09665 14.2877 4.18014 14.2962 4.26277C14.3048 4.3454 14.33 4.42552 14.3703 4.49844C14.4106 4.57137 14.4652 4.63564 14.531 4.6875C14.6446 4.7818 14.7881 4.83378 14.9365 4.83438C15.0294 4.83491 15.1212 4.81531 15.2055 4.77697C15.2898 4.73863 15.3646 4.68248 15.4245 4.6125L16.5999 3.22813C16.6544 3.16501 16.6957 3.09182 16.7212 3.01282C16.7468 2.93383 16.7561 2.85061 16.7488 2.76801C16.7414 2.68541 16.7174 2.60509 16.6783 2.53171C16.6391 2.45834 16.5856 2.39338 16.5207 2.34062ZM5.47596 15.3125C5.41233 15.2595 5.33873 15.2194 5.25937 15.1945C5.18001 15.1696 5.09645 15.1604 5.01347 15.1673C4.93049 15.1743 4.84971 15.1973 4.77576 15.2351C4.70182 15.2729 4.63614 15.3247 4.5825 15.3875L3.40705 16.7812C3.35359 16.8442 3.31323 16.917 3.28827 16.9954C3.26332 17.0738 3.25426 17.1562 3.26162 17.2381C3.26897 17.3199 3.2926 17.3995 3.33114 17.4723C3.36969 17.5451 3.4224 17.6098 3.48626 17.6625C3.55013 17.7152 3.6239 17.755 3.70337 17.7797C3.78283 17.8043 3.86643 17.8132 3.9494 17.806C4.03237 17.7987 4.11307 17.7754 4.18691 17.7374C4.26074 17.6994 4.32626 17.6474 4.37973 17.5844L5.56784 16.2C5.62164 16.1361 5.66199 16.0623 5.68652 15.9828C5.71105 15.9033 5.71928 15.8199 5.71073 15.7372C5.70217 15.6546 5.67701 15.5745 5.6367 15.5016C5.59639 15.4286 5.54175 15.3644 5.47596 15.3125ZM13.4886 0.603125C13.4104 0.574697 13.3273 0.561768 13.244 0.565079C13.1607 0.568391 13.0789 0.587876 13.0033 0.622421C12.9276 0.656965 12.8596 0.70589 12.8032 0.766391C12.7468 0.826893 12.703 0.897783 12.6744 0.975L12.0407 2.67187C11.9835 2.82729 11.991 2.99874 12.0617 3.14869C12.1324 3.29863 12.2604 3.41484 12.4177 3.47188C12.4875 3.49792 12.5617 3.51064 12.6364 3.50937C12.7662 3.50955 12.893 3.47038 12.9995 3.39716C13.106 3.32394 13.1872 3.22021 13.232 3.1L13.8657 1.40312C13.9229 1.24771 13.9153 1.07626 13.8447 0.926313C13.774 0.776371 13.646 0.660159 13.4886 0.603125ZM7.61141 16.5406C7.53319 16.5122 7.45006 16.4993 7.36678 16.5026C7.28349 16.5059 7.20169 16.5254 7.12605 16.5599C7.05041 16.5945 6.98242 16.6434 6.92599 16.7039C6.86955 16.7644 6.82577 16.8353 6.79715 16.9125L6.16349 18.6094C6.10626 18.7648 6.1138 18.9362 6.18447 19.0862C6.25513 19.2361 6.38316 19.3523 6.54052 19.4094C6.61073 19.4339 6.68464 19.4466 6.75913 19.4469C6.88898 19.4471 7.01575 19.4079 7.12228 19.3347C7.22882 19.2614 7.30998 19.1577 7.35477 19.0375L7.98844 17.3406C8.01837 17.2619 8.03191 17.1781 8.02824 17.0942C8.02458 17.0102 8.00379 16.9279 7.96711 16.852C7.93044 16.7762 7.87863 16.7084 7.81479 16.6527C7.75095 16.5971 7.67639 16.5547 7.59556 16.5281L7.61141 16.5406ZM15.6558 10C15.6558 11.1026 15.3243 12.1805 14.7032 13.0973C14.0821 14.0141 13.1993 14.7287 12.1665 15.1506C11.1337 15.5726 9.99721 15.683 8.90078 15.4679C7.80435 15.2528 6.79721 14.7218 6.00672 13.9421C5.21624 13.1624 4.67791 12.1691 4.45982 11.0876C4.24173 10.0062 4.35366 8.88524 4.78147 7.86654C5.20927 6.84784 5.93374 5.97715 6.86325 5.36456C7.79276 4.75197 8.88557 4.425 10.0035 4.425C11.502 4.42665 12.9387 5.01455 13.9984 6.05971C15.058 7.10486 15.6541 8.52193 15.6558 10Z" fill="white" fill-opacity="0.5"/>
</svg>
