<svg width="20" height="16" viewBox="0 0 20 16" fill="none" xmlns="http://www.w3.org/2000/svg">
<path fill-rule="evenodd" clip-rule="evenodd" d="M6.8056 7.71725C6.14198 8.60208 5.87997 9.66864 5.87997 10.3448H4.68561C4.68561 9.42856 5.02078 8.1064 5.85011 7.00063C6.69847 5.86948 8.06328 4.97021 10.0602 4.97021C12.0572 4.97021 13.422 5.86948 14.2704 7.00063C15.0997 8.1064 15.4349 9.42856 15.4349 10.3448H14.2405C14.2405 9.66864 13.9785 8.60208 13.3149 7.71725C12.6703 6.85779 11.6464 6.16458 10.0602 6.16458C8.47411 6.16458 7.45019 6.85779 6.8056 7.71725Z" fill="#ACACAC"/>
<path fill-rule="evenodd" clip-rule="evenodd" d="M16.343 8.81949C16.2879 8.49432 16.5068 8.18601 16.8319 8.13087L18.6693 7.81932C18.9945 7.76418 19.3028 7.98308 19.3579 8.30825C19.413 8.63343 19.1941 8.94173 18.869 8.99687L17.0316 9.30843C16.7064 9.36357 16.3981 9.14466 16.343 8.81949Z" fill="#ACACAC"/>
<path fill-rule="evenodd" clip-rule="evenodd" d="M12.2258 4.02925C11.9175 3.9121 11.7626 3.56721 11.8797 3.2589L12.5708 1.44007C12.6879 1.13176 13.0328 0.976794 13.3412 1.09394C13.6495 1.21109 13.8044 1.55598 13.6873 1.86429L12.9962 3.68312C12.8791 3.99143 12.5342 4.1464 12.2258 4.02925Z" fill="#ACACAC"/>
<path fill-rule="evenodd" clip-rule="evenodd" d="M10.0518 3.62205C9.72196 3.62098 9.45546 3.35275 9.45653 3.02294L9.46283 1.07725C9.4639 0.747442 9.73213 0.480942 10.0619 0.482011C10.3918 0.48308 10.6583 0.751312 10.6572 1.08112L10.6509 3.02681C10.6498 3.35662 10.3816 3.62312 10.0518 3.62205Z" fill="#ACACAC"/>
<path fill-rule="evenodd" clip-rule="evenodd" d="M15.4943 6.84168C15.3324 6.55431 15.4342 6.19014 15.7216 6.02828L17.4637 5.04706C17.751 4.88521 18.1152 4.98696 18.2771 5.27432C18.4389 5.56169 18.3372 5.92586 18.0498 6.08771L16.3077 7.06894C16.0203 7.23079 15.6562 7.12904 15.4943 6.84168Z" fill="#ACACAC"/>
<path fill-rule="evenodd" clip-rule="evenodd" d="M14.1727 5.11106C13.9203 4.89878 13.8878 4.52206 14.1001 4.26965L15.3524 2.78057C15.5647 2.52815 15.9414 2.49562 16.1938 2.70791C16.4462 2.92019 16.4788 3.2969 16.2665 3.54932L15.0141 5.0384C14.8019 5.29081 14.4251 5.32334 14.1727 5.11106Z" fill="#ACACAC"/>
<path fill-rule="evenodd" clip-rule="evenodd" d="M7.87026 4.00766C7.56131 4.1231 7.21727 3.96622 7.10184 3.65727L6.42083 1.83464C6.3054 1.52569 6.46227 1.18165 6.77123 1.06622C7.08018 0.950779 7.42421 1.10766 7.53965 1.41661L8.22065 3.23923C8.33609 3.54819 8.17921 3.89222 7.87026 4.00766Z" fill="#ACACAC"/>
<path fill-rule="evenodd" clip-rule="evenodd" d="M12.0292 10.7418C12.0298 10.412 12.2977 10.1451 12.6275 10.1458L19.4026 10.1591C19.7324 10.1597 19.9992 10.4276 19.9986 10.7574C19.9979 11.0873 19.73 11.3541 19.4002 11.3535L12.6252 11.3401C12.2954 11.3395 12.0285 11.0716 12.0292 10.7418Z" fill="#ACACAC"/>
<path fill-rule="evenodd" clip-rule="evenodd" d="M5.93399 5.0905C5.68234 5.30368 5.30551 5.27249 5.09233 5.02084L3.83468 3.53623C3.6215 3.28458 3.65269 2.90775 3.90434 2.69457C4.156 2.48139 4.53282 2.51257 4.74601 2.76423L6.00365 4.24884C6.21684 4.50049 6.18565 4.87732 5.93399 5.0905Z" fill="#ACACAC"/>
<path fill-rule="evenodd" clip-rule="evenodd" d="M4.50373 6.76337C4.33997 7.04966 3.97513 7.14898 3.68885 6.98523L1.99994 6.01915C1.71365 5.85539 1.61432 5.49055 1.77808 5.20426C1.94184 4.91798 2.30667 4.81865 2.59296 4.98241L4.28187 5.94849C4.56816 6.11225 4.66749 6.47708 4.50373 6.76337Z" fill="#ACACAC"/>
<path fill-rule="evenodd" clip-rule="evenodd" d="M3.81337 8.86521C3.75568 9.18994 3.44568 9.40642 3.12095 9.34874L1.20524 9.00845C0.880509 8.95077 0.664024 8.64076 0.721707 8.31603C0.77939 7.9913 1.0894 7.77481 1.41413 7.8325L3.32983 8.17279C3.65457 8.23047 3.87105 8.54048 3.81337 8.86521Z" fill="#ACACAC"/>
<path fill-rule="evenodd" clip-rule="evenodd" d="M0.000154208 10.7556C0.000507255 10.4258 0.26816 10.1587 0.597974 10.159L7.37225 10.1663C7.70206 10.1666 7.96914 10.4343 7.96879 10.7641C7.96844 11.0939 7.70078 11.361 7.37097 11.3606L0.596696 11.3534C0.266882 11.353 -0.00019884 11.0854 0.000154208 10.7556Z" fill="#ACACAC"/>
<path fill-rule="evenodd" clip-rule="evenodd" d="M10.0465 9.44263C10.3763 9.44263 10.6437 9.70999 10.6437 10.0398V14.021H9.44931V10.0398C9.44931 9.70999 9.71668 9.44263 10.0465 9.44263Z" fill="#ACACAC"/>
<path fill-rule="evenodd" clip-rule="evenodd" d="M8.48969 12.8202C8.71311 12.5776 9.0909 12.562 9.33352 12.7855L10.4501 13.8137C10.6927 14.0371 10.7083 14.4149 10.4849 14.6575C10.2615 14.9001 9.88367 14.9157 9.64106 14.6923L8.52445 13.664C8.28184 13.4406 8.26628 13.0628 8.48969 12.8202Z" fill="#ACACAC"/>
<path fill-rule="evenodd" clip-rule="evenodd" d="M9.66093 14.6457C9.42383 14.4164 9.41749 14.0383 9.64675 13.8012L10.6415 12.7725C10.8707 12.5354 11.2488 12.5291 11.4859 12.7584C11.723 12.9876 11.7293 13.3657 11.5001 13.6028L10.5053 14.6315C10.2761 14.8686 9.89802 14.8749 9.66093 14.6457Z" fill="#ACACAC"/>
</svg>
