<svg width="9" height="20" viewBox="0 0 9 20" fill="none" xmlns="http://www.w3.org/2000/svg">
<path d="M7.5 11.6625V3C7.5 2.20435 7.18393 1.44129 6.62132 0.878678C6.05871 0.31607 5.29565 0 4.5 0C3.70435 0 2.94129 0.31607 2.37868 0.878678C1.81607 1.44129 1.5 2.20435 1.5 3V11.6625C1.02757 12.0806 0.649494 12.5944 0.390877 13.1698C0.132259 13.7453 -0.000981072 14.3691 5.43828e-06 15C5.43828e-06 16.1935 0.474111 17.338 1.31802 18.182C2.16194 19.0259 3.30653 19.5 4.5 19.5C5.69347 19.5 6.83807 19.0259 7.68198 18.182C8.52589 17.338 9 16.1935 9 15C9.00098 14.3691 8.86774 13.7453 8.60912 13.1698C8.35051 12.5944 7.97243 12.0806 7.5 11.6625ZM4.5 18C3.87417 17.9959 3.26529 17.7961 2.75863 17.4287C2.25197 17.0613 1.8729 16.5447 1.67449 15.9511C1.47608 15.3575 1.46828 14.7168 1.65217 14.1186C1.83606 13.5203 2.20244 12.9946 2.7 12.615C2.7952 12.5436 2.87206 12.4506 2.92423 12.3437C2.97639 12.2368 3.00236 12.1189 3 12V3C3 2.60217 3.15804 2.22064 3.43934 1.93934C3.72065 1.65803 4.10218 1.5 4.5 1.5C4.89782 1.5 5.27935 1.65803 5.56066 1.93934C5.84196 2.22064 6 2.60217 6 3V12C6 12.1164 6.02711 12.2313 6.07918 12.3354C6.13125 12.4395 6.20685 12.5301 6.3 12.6C6.80372 12.9778 7.1758 13.5045 7.36354 14.1055C7.55128 14.7065 7.54516 15.3513 7.34605 15.9487C7.14693 16.546 6.76492 17.0655 6.25413 17.4337C5.74333 17.8019 5.12965 18 4.5 18Z" fill="white" fill-opacity="0.5"/>
<path d="M5.25 12.885V7.5C5.25 7.30109 5.17098 7.11032 5.03033 6.96967C4.88968 6.82902 4.69891 6.75 4.5 6.75C4.30109 6.75 4.11032 6.82902 3.96967 6.96967C3.82902 7.11032 3.75 7.30109 3.75 7.5V12.885C3.24959 13.0619 2.82784 13.41 2.55928 13.8679C2.29072 14.3257 2.19265 14.8637 2.28241 15.3868C2.37216 15.9099 2.64396 16.3845 3.04976 16.7266C3.45556 17.0687 3.96924 17.2563 4.5 17.2563C5.03077 17.2563 5.54444 17.0687 5.95025 16.7266C6.35605 16.3845 6.62784 15.9099 6.7176 15.3868C6.80735 14.8637 6.70928 14.3257 6.44072 13.8679C6.17217 13.41 5.75041 13.0619 5.25 12.885Z" fill="white" fill-opacity="0.5"/>
</svg>
