<svg width="20" height="20" viewBox="0 0 20 20" fill="none" xmlns="http://www.w3.org/2000/svg">
<path d="M0.427509 10.311C0.691264 10.4585 1.01502 10.451 1.27128 10.2919C2.80089 9.34606 4.28592 9.34564 5.81054 10.2919C6.04554 10.4377 6.33722 10.4569 6.58972 10.3444C7.46516 9.95313 8.33351 9.71313 9.20144 9.6223V17.0138C9.20144 17.7413 8.60976 18.3334 7.88183 18.3334C7.1539 18.3334 6.56222 17.7413 6.56222 17.0138C6.56222 16.5538 6.18888 16.1805 5.72887 16.1805C5.26886 16.1805 4.89552 16.5538 4.89552 17.0138C4.89552 18.6604 6.23513 20 7.88183 20C9.52853 20 10.8681 18.6604 10.8681 17.0138V9.63105C11.7102 9.72896 12.5565 9.96646 13.4128 10.3456C13.644 10.4481 13.9099 10.4402 14.134 10.3227C15.9745 9.36689 17.457 9.34272 18.6666 10.2502C18.8137 10.3606 18.9896 10.4164 19.1666 10.4164C19.2937 10.4164 19.4217 10.3877 19.5396 10.3285C19.8221 10.1873 20 9.89896 20 9.58313C20 4.38824 15.4203 0 9.99979 0C4.57926 0 0 4.38824 0 9.58313C0 9.88563 0.163753 10.164 0.427509 10.311ZM10.0002 1.66663C11.2911 1.66663 12.7257 4.48699 12.8994 8.37733C11.9302 8.074 10.9598 7.91734 9.99062 7.91734C9.02144 7.91734 8.06058 8.07358 7.10098 8.37483C7.27515 4.48574 8.70935 1.66663 10.0002 1.66663ZM18.1887 8.1415C17.0908 7.789 15.8778 7.85359 14.5636 8.32274C14.4607 5.85863 13.9103 3.73659 13.0653 2.24995C15.6587 3.25952 17.6504 5.48739 18.1887 8.1415ZM6.93514 2.24954C6.09679 3.72451 5.54678 5.82363 5.43803 8.26316C4.22842 7.81442 3.01173 7.789 1.79962 8.2015C2.32047 5.52072 4.32217 3.2666 6.93514 2.24954Z" fill="white" fill-opacity="0.5"/>
</svg>
